<?xml version="1.0" encoding="utf-8"?>
<!-- Generator: Adobe Illustrator 22.0.1, SVG Export Plug-In . SVG Version: 6.00 Build 0)  -->
<svg version="1.1" id="Layer_1" xmlns="http://www.w3.org/2000/svg" xmlns:xlink="http://www.w3.org/1999/xlink" x="0px" y="0px"
	 viewBox="0 0 66 20" style="enable-background:new 0 0 66 20;" xml:space="preserve">
<style type="text/css">
	.st0{fill:#FFFFFF;}
</style>
<g>
	<path class="st0" d="M11.8,5.1L9.4,3.3L7.1,5.1L6.5,4.5l2.9-2.2l2.9,2.2L11.8,5.1z M14.6,17.5V12h0.9v3.8c0.4-0.6,0.9-1.2,1.3-1.9
		c0.7-1.3,1.1-2.6,1.1-4.2c0-4.8-3.8-8.6-8.5-8.6C4.7,1,0.9,4.8,0.9,9.6c0,1.6,0.4,3,1.1,4.2c0.4,0.7,0.9,1.4,1.3,1.9V12h0.9v5.5
		C1.7,15.8,0,12.9,0,9.6c0-5.2,4.2-9.4,9.4-9.4c5.2,0,9.4,4.2,9.4,9.4C18.8,12.9,17.1,15.8,14.6,17.5z M10.8,18.9V5.8h0.9v12.9
		C11.5,18.8,11.1,18.9,10.8,18.9z M12.7,18.4V12h0.9v6C13.3,18.1,13,18.3,12.7,18.4z M9.4,19c-0.2,0-0.3,0-0.5,0V5.8h0.9V19
		C9.7,19,9.6,19,9.4,19z M7.1,18.7V5.8H8v13.1C7.7,18.9,7.4,18.8,7.1,18.7z M5.2,18v-6h0.9v6.5C5.8,18.3,5.5,18.1,5.2,18z"/>
	<path class="st0" d="M35.4,5h-1.5c0.1-0.6,0.2-1.5,0.8-1.5C35.3,3.5,35.3,4.4,35.4,5z M36.4,5.4c0-1.2-0.2-2.4-1.7-2.4
		c-1.4,0-1.8,1.5-1.8,2.6c0,1.4,0.6,2.4,1.8,2.4c0.9,0,1.3-0.4,1.7-1.1l-0.4-0.2C35.7,7,35.4,7.4,35,7.4c-1,0-1.1-1.1-1.2-1.9H36.4z
		 M32,5.5C32,3.3,30.7,3,30.1,3c-1.4,0-2,1.4-2,2.6C28.1,7.1,29,8,30,8C31.1,8,32,7.2,32,5.5z M27.3,6.1c0-0.5-0.2-0.9-0.5-1.3
		c-0.3-0.3-0.7-0.5-1.1-0.5c0.5-0.2,1.2-0.7,1.2-1.6c0-0.4-0.2-0.8-0.4-1.1c-0.5-0.5-1.2-0.5-1.6-0.5c-0.4,0-0.8,0.1-1.3,0.1h-1.2
		v0.4l0.7,0.1v5.8l-0.7,0.1v0.4h1.1c0.2,0,1.3,0,1.5,0c0.6,0,1.5,0,2-0.9C27.2,6.8,27.3,6.5,27.3,6.1z M34.6,13.8v-0.6l-1.1,0
		c-0.3,0-0.7-0.2-1-0.2c-1,0-1.7,0.7-1.7,1.6c0,0.8,0.5,1.2,0.8,1.3c-0.5,0.3-0.9,0.7-0.9,1.1c0,0.3,0.2,0.5,0.6,0.6
		c-0.4,0.2-0.8,0.5-0.8,1c0,0.7,0.9,1,1.7,1c1.5,0,2.4-0.7,2.4-1.7c0-0.8-0.5-1.1-1.4-1.2l-1.3-0.1c-0.1,0-0.3,0-0.3-0.2
		c0-0.1,0.2-0.3,0.4-0.4c0.2,0.1,0.4,0.1,0.6,0.1c0.7,0,1.6-0.5,1.6-1.6c0-0.4-0.1-0.6-0.4-1L34.6,13.8z M29.9,18v-0.4l-0.5-0.1
		v-3.1c0-0.8-0.4-1.2-1.2-1.2c-0.5,0-0.9,0.3-1.3,0.6v-0.6h-0.3l-1.2,0.3v0.4l0.6,0.1v3.6l-0.6,0.1V18h2v-0.4l-0.5-0.1v-3.2
		c0.3-0.2,0.6-0.4,0.9-0.4c0.6,0,0.6,0.6,0.6,0.8v2.9l-0.5,0.1V18H29.9z M24.7,18v-0.4l-0.6-0.1v-5.8l0.6-0.1v-0.4h-2.3v0.4l0.6,0.1
		v5.8l-0.6,0.1V18H24.7z M31,5.4c0,0.6-0.1,2.1-0.9,2.1c-0.6,0-0.8-0.8-0.8-2c0-0.6,0-2.1,0.9-2.1C30.8,3.5,31,4.6,31,5.4z
		 M25.7,2.8c0,1.3-0.8,1.3-1.2,1.3H24V1.6c0.2-0.1,0.4-0.1,0.7-0.1C25,1.5,25.7,1.7,25.7,2.8z M26.1,6.1c0,0.5-0.2,1-0.6,1.3
		c-0.3,0.2-0.6,0.2-0.9,0.2c-0.3,0-0.5,0-0.6-0.2V4.6h0.4C25.1,4.6,26.1,4.7,26.1,6.1z M33.2,14.8c0,0.5-0.1,1.1-0.7,1.1
		c-0.6,0-0.7-0.7-0.7-1.2c0-0.5,0-1.2,0.6-1.2C33.1,13.5,33.2,14.3,33.2,14.8z M33.9,18.5c0,0.4-0.6,0.8-1.4,0.8c-0.6,0-1-0.3-1-0.7
		c0-0.4,0.2-0.6,0.4-0.8c1,0.1,1.4,0.1,1.8,0.2C33.7,18.1,33.9,18.2,33.9,18.5z"/>
	<path class="st0" d="M50,15.1h-1.5c0.1-0.6,0.2-1.5,0.8-1.5C49.9,13.6,50,14.5,50,15.1z M47.4,1.3c0-0.4-0.3-0.6-0.7-0.6
		c-0.3,0-0.6,0.3-0.6,0.6c0,0.4,0.3,0.6,0.6,0.6C47.1,2,47.4,1.7,47.4,1.3z M47.9,7.9V7.5l-0.6-0.1V3.1h-0.2l-1.2,0.3v0.3l0.5,0.1
		v3.6l-0.5,0.1v0.4H47.9z M45.3,3.7c0-0.4-0.3-0.6-0.6-0.6c-0.4,0-0.7,0.3-1,0.8V3h-0.3l-1.2,0.3v0.3l0.6,0.1v3.6l-0.6,0.1v0.4h2.2
		V7.5l-0.7-0.1V4.8c0-0.2,0.2-0.7,0.6-0.8l0.5,0.3C45.1,4.1,45.3,4,45.3,3.7z M41.5,7.9V7.5L41,7.4V4.3c0-0.7-0.4-1.2-1.2-1.2
		c-0.5,0-0.9,0.3-1.3,0.6v-3h-0.3L37,0.9v0.3l0.6,0.1v6L37,7.5v0.4h2V7.5l-0.5-0.1V4.2c0.3-0.2,0.6-0.4,0.9-0.4c0.6,0,0.6,0.6,0.6,1
		v2.7l-0.5,0.1v0.4H41.5z M46.8,18.1v-0.4l-0.5-0.1v-3.1c0-0.7-0.4-1.2-1.2-1.2c-0.5,0-1,0.3-1.3,0.6v-3h-0.3L42.3,11v0.3l0.6,0.1
		v6.1l-0.6,0.1v0.4h2v-0.4l-0.5-0.1v-3.2c0.3-0.2,0.6-0.5,0.9-0.5c0.6,0,0.6,0.6,0.6,1v2.7l-0.5,0.1v0.4H46.8z M41.5,18.1v-0.4
		L41,17.5v-6.8h-0.3L39.5,11v0.3l0.6,0.1v6.1l-0.6,0.1v0.4H41.5z M51,15.6c0-1.2-0.2-2.4-1.7-2.4c-1.4,0-1.8,1.5-1.8,2.6
		c0,1.4,0.6,2.4,1.8,2.4c0.9,0,1.3-0.4,1.7-1.1l-0.4-0.2c-0.2,0.3-0.5,0.6-0.9,0.6c-1,0-1.1-1.1-1.2-1.9H51z M38.8,15.6
		c0-1.2-0.2-2.4-1.7-2.4c-1.4,0-1.8,1.5-1.8,2.6c0,1.4,0.6,2.4,1.8,2.4c0.9,0,1.3-0.4,1.7-1.1l-0.4-0.2c-0.2,0.3-0.5,0.6-0.9,0.6
		c-1,0-1.1-1.1-1.2-1.9H38.8z M37.8,15.1h-1.5c0.1-0.6,0.2-1.5,0.8-1.5C37.7,13.6,37.7,14.5,37.8,15.1z"/>
	<path class="st0" d="M61.1,5h-1.5c0.1-0.6,0.2-1.5,0.8-1.5C61,3.5,61.1,4.4,61.1,5z M66,3.7c0-0.4-0.3-0.6-0.6-0.6
		c-0.4,0-0.6,0.3-1,0.8V3h-0.3L63,3.4v0.3l0.6,0.1v3.7L63,7.5v0.4h2.2V7.5l-0.7-0.1V4.8c0-0.2,0.2-0.7,0.6-0.8l0.5,0.3
		C65.8,4.1,66,4,66,3.7z M62.1,5.4c0-1.2-0.2-2.4-1.7-2.4c-1.5,0-1.8,1.5-1.8,2.6c0,1.4,0.6,2.4,1.8,2.4c0.9,0,1.3-0.4,1.7-1.1
		l-0.4-0.2c-0.2,0.3-0.5,0.6-0.9,0.6c-1,0-1.1-1.1-1.2-1.9H62.1z M57.9,3.7V3.1l-1.1,0c-0.3,0-0.7-0.2-1-0.2c-0.9,0-1.7,0.6-1.7,1.6
		c0,0.8,0.5,1.2,0.8,1.4c-0.5,0.3-0.9,0.7-0.9,1c0,0.3,0.2,0.5,0.6,0.6c-0.3,0.2-0.8,0.5-0.8,1c0,0.7,0.9,1,1.7,1
		c1.5,0,2.4-0.7,2.4-1.7c0-0.9-0.5-1.2-1.4-1.2l-1.3,0c-0.1,0-0.3-0.1-0.3-0.2c0-0.1,0.2-0.3,0.4-0.4c0.2,0,0.4,0.1,0.6,0.1
		c0.7,0,1.6-0.5,1.6-1.6c0-0.4-0.1-0.7-0.4-1L57.9,3.7z M53.2,7.9V7.5l-0.5-0.1V4.3c0-0.8-0.4-1.2-1.2-1.2c-0.5,0-0.9,0.3-1.3,0.6V3
		h-0.3l-1.2,0.3v0.4l0.6,0.1v3.6l-0.6,0.1v0.4h2V7.5l-0.5-0.1V4.2c0.3-0.2,0.5-0.5,0.9-0.5c0.6,0,0.6,0.6,0.6,0.8v2.9l-0.5,0.1v0.4
		H53.2z M61.8,18.1v-0.4l-0.6-0.1v-3.1c0-0.8-0.5-1.2-1.2-1.2c-0.6,0-1,0.3-1.4,0.7c-0.2-0.4-0.6-0.6-1.1-0.6
		c-0.5,0-0.9,0.2-1.3,0.6v-0.7H56l-1.2,0.3v0.3l0.6,0.1v3.6l-0.6,0.1v0.4h2v-0.4l-0.5-0.1v-3.2c0.2-0.2,0.5-0.5,0.9-0.5
		c0.5,0,0.6,0.5,0.6,0.8v2.8l-0.6,0.1v0.4h2v-0.4l-0.5-0.1v-3.2c0.3-0.3,0.5-0.5,1-0.5c0.5,0,0.6,0.6,0.6,0.8v2.9l-0.5,0.1v0.4H61.8
		z M53.5,11.4c0-0.3-0.3-0.6-0.6-0.6c-0.3,0-0.7,0.3-0.7,0.6c0,0.3,0.3,0.6,0.7,0.6C53.2,12,53.5,11.7,53.5,11.4z M54,18.1v-0.4
		l-0.6-0.1v-4.3h-0.2l-1.2,0.3v0.3l0.5,0.1v3.6l-0.5,0.1v0.4H54z M56.4,4.7c0,0.5-0.1,1.1-0.6,1.1c-0.6,0-0.7-0.6-0.7-1.2
		c0-0.5,0-1.2,0.7-1.2C56.4,3.4,56.4,4.1,56.4,4.7z M57.2,8.4c0,0.4-0.6,0.8-1.4,0.8c-0.6,0-1-0.2-1-0.7c0-0.4,0.2-0.6,0.4-0.8
		c1,0.1,1.4,0.1,1.8,0.2C57,8,57.2,8.1,57.2,8.4z"/>
</g>
</svg>
